HIERARCHY
ROOT mixamorig:Hips
{
	OFFSET 0.000000 201.639420 0.000000
	CHANNELS 6 Xposition Yposition Zposition Xrotation Yrotation Zrotation
	JOINT mixamorig:Spine
	{
		OFFSET 0.006200 19.524994 -2.481800
		CHANNELS 3 Xrotation Yrotation Zrotation
		JOINT mixamorig:Spine1
		{
			OFFSET -0.000900 22.835007 -2.825400
			CHANNELS 3 Xrotation Yrotation Zrotation
			JOINT mixamorig:Spine2
			{
				OFFSET -0.020600 26.552490 -3.193300
				CHANNELS 3 Xrotation Yrotation Zrotation
				JOINT mixamorig:Neck
				{
					OFFSET -0.060000 30.701813 1.352200
					CHANNELS 3 Xrotation Yrotation Zrotation
					JOINT mixamorig:Head
					{
						OFFSET -0.087200 22.547607 3.670900
						CHANNELS 3 Xrotation Yrotation Zrotation
						JOINT mixamorig:HeadTop_End
						{
							OFFSET -0.830600 40.355194 7.893500
							CHANNELS 3 Xrotation Yrotation Zrotation
							End Site
							{
								OFFSET 0.000000 30.592346 0.000000
							}
						}
						JOINT mixamorig:RightEye
						{
							OFFSET -6.302100 18.118591 16.197100
							CHANNELS 3 Xrotation Yrotation Zrotation
							End Site
							{
								OFFSET 0.000000 30.592346 0.000000
							}
						}
						JOINT mixamorig:LeftEye
						{
							OFFSET 6.741500 18.382690 16.401899
							CHANNELS 3 Xrotation Yrotation Zrotation
							End Site
							{
								OFFSET 0.000000 30.592346 0.000000
							}
						}
					}
				}
				JOINT mixamorig:LeftShoulder
				{
					OFFSET 11.924900 18.230499 1.425400
					CHANNELS 3 Xrotation Yrotation Zrotation
					JOINT mixamorig:LeftArm
					{
						OFFSET 25.435989 -0.697632 -5.229300
						CHANNELS 3 Xrotation Yrotation Zrotation
						JOINT mixamorig:LeftForeArm
						{
							OFFSET 54.684776 0.000000 0.000000
							CHANNELS 3 Xrotation Yrotation Zrotation
							JOINT mixamorig:LeftHand
							{
								OFFSET 55.098175 0.000000 0.000000
								CHANNELS 3 Xrotation Yrotation Zrotation
								JOINT mixamorig:LeftHandMiddle1
								{
									OFFSET 23.369751 0.000000 0.000000
									CHANNELS 3 Xrotation Yrotation Zrotation
									JOINT mixamorig:LeftHandMiddle2
									{
										OFFSET 6.378677 0.000000 0.000000
										CHANNELS 3 Xrotation Yrotation Zrotation
										JOINT mixamorig:LeftHandMiddle3
										{
											OFFSET 6.148331 0.000000 0.000000
											CHANNELS 3 Xrotation Yrotation Zrotation
											JOINT mixamorig:LeftHandMiddle4
											{
												OFFSET 6.582504 0.000000 0.000000
												CHANNELS 3 Xrotation Yrotation Zrotation
												End Site
												{
													OFFSET -1.168900 6.395691 1.028606
												}
											}
										}
									}
								}
								JOINT mixamorig:LeftHandThumb1
								{
									OFFSET 7.235672 -3.848206 5.434273
									CHANNELS 3 Xrotation Yrotation Zrotation
									JOINT mixamorig:LeftHandThumb2
									{
										OFFSET 6.568451 -3.792297 3.792300
										CHANNELS 3 Xrotation Yrotation Zrotation
										JOINT mixamorig:LeftHandThumb3
										{
											OFFSET 6.063080 -3.500519 3.500518
											CHANNELS 3 Xrotation Yrotation Zrotation
											JOINT mixamorig:LeftHandThumb4
											{
												OFFSET 4.793182 -2.767334 2.767349
												CHANNELS 3 Xrotation Yrotation Zrotation
												End Site
												{
													OFFSET 0.101639 6.054260 1.275483
												}
											}
										}
									}
								}
								JOINT mixamorig:LeftHandIndex1
								{
									OFFSET 23.101074 -0.309540 4.992809
									CHANNELS 3 Xrotation Yrotation Zrotation
									JOINT mixamorig:LeftHandIndex2
									{
										OFFSET 6.226883 0.000000 0.000000
										CHANNELS 3 Xrotation Yrotation Zrotation
										JOINT mixamorig:LeftHandIndex3
										{
											OFFSET 6.094330 0.000000 0.000000
											CHANNELS 3 Xrotation Yrotation Zrotation
											JOINT mixamorig:LeftHandIndex4
											{
												OFFSET 5.482605 0.000000 0.000000
												CHANNELS 3 Xrotation Yrotation Zrotation
												End Site
												{
													OFFSET -1.427902 5.233032 0.797164
												}
											}
										}
									}
								}
								JOINT mixamorig:LeftHandRing1
								{
									OFFSET 22.299240 0.021149 -3.964172
									CHANNELS 3 Xrotation Yrotation Zrotation
									JOINT mixamorig:LeftHandRing2
									{
										OFFSET 6.321869 0.000000 0.000000
										CHANNELS 3 Xrotation Yrotation Zrotation
										JOINT mixamorig:LeftHandRing3
										{
											OFFSET 5.899796 0.000000 0.000000
											CHANNELS 3 Xrotation Yrotation Zrotation
											JOINT mixamorig:LeftHandRing4
											{
												OFFSET 6.517899 0.000000 0.000000
												CHANNELS 3 Xrotation Yrotation Zrotation
												End Site
												{
													OFFSET -1.637299 6.232208 0.980890
												}
											}
										}
									}
								}
								JOINT mixamorig:LeftHandPinky1
								{
									OFFSET 20.463791 -0.302338 -8.562233
									CHANNELS 3 Xrotation Yrotation Zrotation
									JOINT mixamorig:LeftHandPinky2
									{
										OFFSET 6.908646 0.000000 0.000000
										CHANNELS 3 Xrotation Yrotation Zrotation
										JOINT mixamorig:LeftHandPinky3
										{
											OFFSET 4.622849 0.000000 0.000000
											CHANNELS 3 Xrotation Yrotation Zrotation
											JOINT mixamorig:LeftHandPinky4
											{
												OFFSET 5.216080 0.000000 0.000000
												CHANNELS 3 Xrotation Yrotation Zrotation
												End Site
												{
													OFFSET -0.606308 5.116241 0.814926
												}
											}
										}
									}
								}
							}
						}
					}
				}
				JOINT mixamorig:RightShoulder
				{
					OFFSET -12.001300 18.284088 1.348900
					CHANNELS 3 Xrotation Yrotation Zrotation
					JOINT mixamorig:RightArm
					{
						OFFSET -25.308500 -0.751312 -5.164599
						CHANNELS 3 Xrotation Yrotation Zrotation
						JOINT mixamorig:RightForeArm
						{
							OFFSET -54.684429 0.000000 0.000000
							CHANNELS 3 Xrotation Yrotation Zrotation
							JOINT mixamorig:RightHand
							{
								OFFSET -55.150291 0.000000 0.000000
								CHANNELS 3 Xrotation Yrotation Zrotation
								JOINT mixamorig:RightHandMiddle1
								{
									OFFSET -23.317566 0.000000 0.000000
									CHANNELS 3 Xrotation Yrotation Zrotation
									JOINT mixamorig:RightHandMiddle2
									{
										OFFSET -6.378403 0.000000 0.000000
										CHANNELS 3 Xrotation Yrotation Zrotation
										JOINT mixamorig:RightHandMiddle3
										{
											OFFSET -6.148193 0.000000 0.000000
											CHANNELS 3 Xrotation Yrotation Zrotation
											JOINT mixamorig:RightHandMiddle4
											{
												OFFSET -6.583389 0.000000 0.000000
												CHANNELS 3 Xrotation Yrotation Zrotation
												End Site
												{
													OFFSET 1.171692 6.395905 1.029786
												}
											}
										}
									}
								}
								JOINT mixamorig:RightHandThumb1
								{
									OFFSET -7.190521 -3.860474 5.435846
									CHANNELS 3 Xrotation Yrotation Zrotation
									JOINT mixamorig:RightHandThumb2
									{
										OFFSET -6.567429 -3.791718 3.791708
										CHANNELS 3 Xrotation Yrotation Zrotation
										JOINT mixamorig:RightHandThumb3
										{
											OFFSET -6.062469 -3.500153 3.500166
											CHANNELS 3 Xrotation Yrotation Zrotation
											JOINT mixamorig:RightHandThumb4
											{
												OFFSET -4.792618 -2.767029 2.767022
												CHANNELS 3 Xrotation Yrotation Zrotation
												End Site
												{
													OFFSET -0.100327 6.053253 1.276754
												}
											}
										}
									}
								}
								JOINT mixamorig:RightHandIndex1
								{
									OFFSET -23.048981 -0.310791 4.992554
									CHANNELS 3 Xrotation Yrotation Zrotation
									JOINT mixamorig:RightHandIndex2
									{
										OFFSET -6.227539 0.000000 0.000000
										CHANNELS 3 Xrotation Yrotation Zrotation
										JOINT mixamorig:RightHandIndex3
										{
											OFFSET -6.095047 0.000000 0.000000
											CHANNELS 3 Xrotation Yrotation Zrotation
											JOINT mixamorig:RightHandIndex4
											{
												OFFSET -5.484772 0.000000 0.000000
												CHANNELS 3 Xrotation Yrotation Zrotation
												End Site
												{
													OFFSET 1.420593 5.237305 0.797056
												}
											}
										}
									}
								}
								JOINT mixamorig:RightHandRing1
								{
									OFFSET -22.246323 0.020569 -3.963762
									CHANNELS 3 Xrotation Yrotation Zrotation
									JOINT mixamorig:RightHandRing2
									{
										OFFSET -6.322128 0.000000 0.000000
										CHANNELS 3 Xrotation Yrotation Zrotation
										JOINT mixamorig:RightHandRing3
										{
											OFFSET -5.900024 0.000000 0.000000
											CHANNELS 3 Xrotation Yrotation Zrotation
											JOINT mixamorig:RightHandRing4
											{
												OFFSET -6.518356 0.000000 0.000000
												CHANNELS 3 Xrotation Yrotation Zrotation
												End Site
												{
													OFFSET 1.636398 6.232697 0.982186
												}
											}
										}
									}
								}
								JOINT mixamorig:RightHandPinky1
								{
									OFFSET -20.411011 -0.303314 -8.561701
									CHANNELS 3 Xrotation Yrotation Zrotation
									JOINT mixamorig:RightHandPinky2
									{
										OFFSET -6.907349 0.000000 0.000000
										CHANNELS 3 Xrotation Yrotation Zrotation
										JOINT mixamorig:RightHandPinky3
										{
											OFFSET -4.623840 0.000000 0.000000
											CHANNELS 3 Xrotation Yrotation Zrotation
											JOINT mixamorig:RightHandPinky4
											{
												OFFSET -5.218353 0.000000 0.000000
												CHANNELS 3 Xrotation Yrotation Zrotation
												End Site
												{
													OFFSET 0.602097 5.118835 0.816273
												}
											}
										}
									}
								}
							}
						}
					}
				}
			}
		}
	}
	JOINT mixamorig:LeftUpLeg
	{
		OFFSET 18.168400 -13.561905 -0.039000
		CHANNELS 3 Xrotation Yrotation Zrotation
		JOINT mixamorig:LeftLeg
		{
			OFFSET 0.577358 -80.825211 -3.695000
			CHANNELS 3 Xrotation Yrotation Zrotation
			JOINT mixamorig:LeftFoot
			{
				OFFSET -0.577356 -83.370262 -6.520700
				CHANNELS 3 Xrotation Yrotation Zrotation
				JOINT mixamorig:LeftToeBase
				{
					OFFSET 0.750401 -20.798306 25.135401
					CHANNELS 3 Xrotation Yrotation Zrotation
					JOINT mixamorig:LeftToe_End
					{
						OFFSET -0.000500 0.001200 19.917799
						CHANNELS 3 Xrotation Yrotation Zrotation
						End Site
						{
							OFFSET 0.000000 19.917805 0.000000
						}
					}
				}
			}
		}
	}
	JOINT mixamorig:RightUpLeg
	{
		OFFSET -18.162500 -13.585098 -0.041000
		CHANNELS 3 Xrotation Yrotation Zrotation
		JOINT mixamorig:RightLeg
		{
			OFFSET -0.595024 -80.945297 -3.631900
			CHANNELS 3 Xrotation Yrotation Zrotation
			JOINT mixamorig:RightFoot
			{
				OFFSET 0.595024 -83.218193 -6.561200
				CHANNELS 3 Xrotation Yrotation Zrotation
				JOINT mixamorig:RightToeBase
				{
					OFFSET -0.753601 -20.807106 25.115000
					CHANNELS 3 Xrotation Yrotation Zrotation
					JOINT mixamorig:RightToe_End
					{
						OFFSET 0.000299 0.001700 19.918200
						CHANNELS 3 Xrotation Yrotation Zrotation
						End Site
						{
							OFFSET 0.000000 19.918203 0.000000
						}
					}
				}
			}
		}
	}
}
MOTION
Frames: 4
Frame Time: 0.033333
6.528814 176.902557 -134.151413 7.079830 14.111431 -7.315440 27.329438 -6.116430 7.651497 0.423865 -1.025307 -0.212896 0.411167 -1.038883 -0.168098 -0.939664 -0.964193 2.619282 -26.626302 -7.215870 9.895520 -0.000000 0.000000 -0.000000 -0.000000 0.000000 -0.000000 -0.000000 0.000000 -0.000000 0.745545 -19.185757 -8.550778 -25.856282 -30.895688 -72.186412 -0.000006 -36.294806 0.000013 -70.617742 -22.891847 -25.132456 0.306999 2.056341 -14.923595 0.215201 1.711327 -14.333888 0.190132 1.609993 -13.468195 -0.000001 -0.000002 0.000002 -1.511103 3.663170 6.191125 3.939264 7.949270 0.746934 -0.579250 1.575566 2.538850 0.000004 -0.000000 0.000000 0.208980 1.686905 -14.284228 0.214739 1.709443 -14.317887 0.214197 1.707354 -14.299988 0.000001 -0.000000 0.000001 0.204832 1.670576 -13.703951 0.233319 1.780677 -14.928384 0.225906 1.752680 -14.688236 -0.000001 -0.000002 0.000001 1.512900 6.063541 -16.415612 0.211968 -2.346751 -14.812903 0.148094 1.423230 -11.880725 -0.000002 -0.000001 0.000004 1.306404 25.473944 6.037270 -2.702018 25.353476 59.085958 -0.000124 85.087355 0.000120 47.950250 -26.058022 -26.716070 0.455698 -2.502938 18.210169 0.323054 -2.098743 17.499856 3.224635 -1.125355 16.792636 -0.000001 0.000001 -0.000003 -1.777080 -3.612307 -6.495787 4.644328 -8.650883 -0.229163 -1.267380 0.120270 -2.099574 0.000000 -0.000000 -0.000000 0.339449 -2.150601 17.523603 0.324128 -2.102123 17.529196 0.324142 -2.102118 17.529206 0.000002 0.000001 -0.000001 0.360856 -2.236003 16.140835 0.382008 -2.277129 19.043886 -2.331126 -3.092248 18.271103 0.000000 -0.000002 0.000002 0.339451 -2.150598 17.523605 0.324129 -2.102127 17.529202 0.324135 -2.102113 17.529209 -0.000001 0.000002 0.000000 -18.812861 9.020088 18.647844 48.539153 3.997362 4.896866 -35.618583 6.443131 -17.411966 -0.000058 -0.000005 -0.000004 -0.000000 -0.000000 -0.000000 -51.309750 -0.641608 -1.079927 49.112957 8.966753 -3.031451 -6.116809 4.497237 8.119639 -0.076381 0.000003 0.000001 -0.000000 0.000000 0.000000 
6.532518 176.882767 -134.085815 7.089568 14.070335 -7.357820 27.335064 -6.069824 7.676346 0.385713 -1.020642 -0.212269 0.373042 -1.033815 -0.167146 -0.943600 -0.962234 2.625378 -26.650153 -7.200213 9.891255 -0.000001 -0.000000 -0.000000 -0.000001 -0.000000 -0.000000 -0.000001 -0.000000 -0.000000 0.744482 -19.158419 -8.556369 -25.118316 -30.508396 -71.732921 0.000003 -36.358723 0.000004 -70.062885 -22.761018 -24.584363 0.308603 2.062510 -14.916976 0.215214 1.711314 -14.333873 0.190035 1.609650 -13.465266 0.000002 -0.000001 -0.000002 -1.512769 3.663594 6.199542 3.940224 7.951633 0.747469 -0.578375 1.577957 2.539475 -0.000002 0.000001 -0.000001 0.210499 1.692823 -14.277459 0.214727 1.709462 -14.317896 0.214107 1.707006 -14.296992 -0.000001 -0.000001 -0.000003 0.206386 1.676958 -13.700025 0.233217 1.780309 -14.925261 0.225824 1.752324 -14.685112 -0.000001 -0.000003 0.000000 1.514498 6.070460 -16.409019 0.211963 -2.346740 -14.812904 0.148027 1.422869 -11.877768 -0.000005 -0.000004 0.000002 1.308416 25.492207 6.030193 -2.644889 25.345439 59.009044 -0.000343 85.167384 0.000348 48.292463 -26.012164 -26.137227 0.456125 -2.504217 18.211803 0.323052 -2.098731 17.499851 3.224658 -1.125408 16.793512 0.000000 -0.000002 -0.000000 -1.776413 -3.613337 -6.493164 4.644437 -8.651127 -0.229216 -1.267287 0.120008 -2.099643 0.000002 0.000000 0.000000 0.339819 -2.151758 17.524360 0.324175 -2.102209 17.530068 0.324163 -2.102209 17.530080 0.000001 0.000000 -0.000002 0.361196 -2.237140 16.141595 0.382040 -2.277233 19.044758 -2.331078 -3.092373 18.271968 -0.000003 0.000000 0.000000 0.339818 -2.151763 17.524355 0.324173 -2.102210 17.530075 0.324167 -2.102225 17.530085 0.000001 -0.000000 0.000000 -18.819953 9.060931 18.731459 48.553062 3.912142 4.875894 -35.665031 6.439545 -17.375337 -0.000055 -0.000000 -0.000001 -0.000000 -0.000000 -0.000000 -51.330439 -0.667638 -1.009626 49.142706 8.966128 -3.038551 -6.161258 4.687390 8.101412 -0.073838 -0.000005 -0.000001 -0.000000 0.000000 0.000000 
6.534042 176.866806 -134.027344 7.102579 14.025030 -7.379618 27.381173 -6.033481 7.677901 0.338320 -1.016747 -0.215380 0.325670 -1.029593 -0.169699 -0.967320 -0.963959 2.645861 -26.664843 -7.193129 9.910316 -0.000000 0.000000 0.000000 -0.000000 0.000000 0.000000 -0.000000 0.000000 0.000000 0.752859 -19.147044 -8.495394 -24.565132 -30.244194 -71.429483 -0.000010 -36.464987 -0.000020 -69.753471 -22.538630 -24.485009 0.309887 2.067365 -14.911717 0.215202 1.711314 -14.333885 0.189955 1.609380 -13.462934 0.000001 0.000001 -0.000001 -1.514142 3.663950 6.206255 3.940969 7.953480 0.747885 -0.577680 1.579832 2.539945 -0.000003 0.000004 0.000001 0.211696 1.697503 -14.272075 0.214725 1.709441 -14.317895 0.214028 1.706734 -14.294611 -0.000002 0.000001 -0.000002 0.207623 1.681991 -13.696903 0.233137 1.780033 -14.922800 0.225752 1.752021 -14.682620 -0.000003 -0.000001 -0.000003 1.515758 6.075925 -16.403767 0.211966 -2.346745 -14.812906 0.147958 1.422594 -11.875395 -0.000001 -0.000001 0.000001 1.285344 25.490030 6.146588 -2.561531 25.344646 58.808940 0.000514 85.282568 -0.000504 48.687487 -25.913779 -25.486284 0.456618 -2.505673 18.213915 0.323062 -2.098735 17.499855 3.224653 -1.125470 16.794646 0.000000 0.000001 -0.000001 -1.775673 -3.614604 -6.489806 4.644556 -8.651368 -0.229281 -1.267187 0.119726 -2.099719 0.000001 0.000000 0.000000 0.340241 -2.153122 17.525340 0.324215 -2.102335 17.531207 0.324208 -2.102379 17.531193 0.000001 -0.000001 0.000001 0.361594 -2.238473 16.142595 0.382074 -2.277361 19.045889 -2.331006 -3.092559 18.273077 0.000001 -0.000001 0.000004 0.340245 -2.153126 17.525342 0.324204 -2.102344 17.531209 0.324199 -2.102366 17.531205 -0.000002 0.000002 -0.000004 -18.817811 9.096651 18.781915 48.553575 3.861388 4.855918 -35.698516 6.438189 -17.351906 -0.000042 -0.000002 0.000000 -0.000000 0.000000 -0.000000 -51.365147 -0.709909 -0.966227 49.164788 8.966730 -3.043659 -6.205597 5.045664 8.073535 -0.069454 0.000002 0.000000 -0.000000 0.000002 0.000000 
6.536583 176.854828 -133.966782 7.129182 13.975705 -7.393320 27.441813 -6.005659 7.665007 0.291409 -1.013612 -0.218569 0.278801 -1.026134 -0.172281 -1.000396 -0.966712 2.667452 -26.678323 -7.204433 9.966553 -0.000000 0.000001 0.000000 -0.000000 0.000001 0.000000 -0.000000 0.000001 0.000000 0.758284 -19.142266 -8.455994 -24.229804 -30.206477 -71.227098 -0.000005 -36.521465 0.000005 -69.682375 -22.280692 -24.864510 0.310618 2.070181 -14.908631 0.215195 1.711314 -14.333888 0.189934 1.609204 -13.461556 0.000001 0.000003 -0.000002 -1.515024 3.664159 6.210205 3.941404 7.954550 0.748120 -0.577273 1.580918 2.540230 0.000002 0.000000 -0.000002 0.212374 1.700236 -14.268929 0.214717 1.709447 -14.317891 0.213996 1.706567 -14.293206 -0.000002 0.000002 -0.000002 0.208325 1.684924 -13.695074 0.233095 1.779851 -14.921334 0.225697 1.751852 -14.681167 0.000001 -0.000001 -0.000001 1.516466 6.079115 -16.400679 0.211974 -2.346764 -14.812903 0.147931 1.422424 -11.874012 0.000000 0.000001 0.000002 1.259739 25.486120 6.275571 -2.515177 25.395209 58.628479 0.000313 85.325086 -0.000321 48.806510 -25.912705 -25.237206 0.456889 -2.506478 18.214943 0.323052 -2.098720 17.499843 3.224683 -1.125514 16.795188 -0.000002 -0.000000 -0.000000 -1.775199 -3.615248 -6.488153 4.644622 -8.651554 -0.229315 -1.267119 0.119562 -2.099763 0.000001 -0.000001 0.000001 0.340482 -2.153833 17.525816 0.324223 -2.102408 17.531752 0.324227 -2.102430 17.531757 -0.000000 -0.000002 -0.000001 0.361808 -2.239209 16.143072 0.382112 -2.277431 19.046438 -2.330981 -3.092630 18.273645 -0.000000 0.000000 0.000005 0.340485 -2.153841 17.525820 0.324229 -2.102427 17.531742 0.324229 -2.102414 17.531765 -0.000001 0.000003 0.000001 -18.811977 9.118292 18.800857 48.537698 3.861040 4.845408 -35.717914 6.442914 -17.353100 -0.000030 0.000007 0.000003 -0.000000 0.000005 0.000000 -51.413785 -0.757657 -0.951847 49.179722 8.969153 -3.032781 -6.247941 5.462134 8.037939 -0.065066 0.000005 0.000004 -0.000000 -0.000002 -0.000000 
